<?xml version="1.0" encoding="utf-8"?>
<!-- Generator: Adobe Illustrator 28.3.0, SVG Export Plug-In . SVG Version: 6.00 Build 0)  -->
<svg version="1.1" id="Layer_1" xmlns="http://www.w3.org/2000/svg" xmlns:xlink="http://www.w3.org/1999/xlink" x="0px" y="0px"
	 viewBox="0 0 192 68" style="enable-background:new 0 0 192 68;" xml:space="preserve">
<style type="text/css">
	.st0{fill:#E5E7EB;}
	.st1{fill:none;stroke:#E5E7EB;stroke-miterlimit:10;}
</style>
<g>
	<path class="st0" d="M42.5,19.8c0,10.5-7.7,20.8-20.8,20.8C10.1,40.6,1,31.6,1,20.1C0.9,8.3,10.5,0,21.8,0c8.8,0,17.3,6,19.5,13.8
		H30.1c-1.8-3.2-4.9-5.1-8.6-5.1c-6.3,0-10.7,5.1-10.7,11.3c0,6.5,4.1,11.7,10.7,11.7c4.6,0,8.1-2.3,9.3-6.3H19.3v-8h23.2V19.8z"/>
	<path class="st0" d="M53.8,39.8v-5.6H42.5l-3.4,5.6h-12l26.8-39h9.9v39H53.8z M53.8,15.4L53.8,15.4l-6.5,10.8h6.5V15.4z"/>
	<path class="st0" d="M97.4,39.8l0.3-29.2l-0.1-0.1l-8.3,29.3h-6.6l-8.4-29.6l0.3,29.6h-9.2v-39h12.8L86,26.4h0.1l7.6-25.7h12.9v39
		h-9.2V39.8z"/>
	<path class="st0" d="M108.3,39.8v-39h10v39H108.3z"/>
	<path class="st0" d="M144.2,39.8l-15-23.8l0.3,23.8H120v-39h8.6l15.2,24.7l-0.4-24.7h9.5v39H144.2z"/>
	<path class="st0" d="M190.2,19.8c0,10.5-7.7,20.8-20.8,20.8c-11.6,0-20.7-9-20.7-20.5c0-11.8,9.5-20.1,20.9-20.1
		c8.8,0,17.3,6,19.5,13.8h-11.2c-1.8-3.2-4.9-5.1-8.6-5.1c-6.3,0-10.7,5.1-10.7,11.3c0,6.5,4.1,11.7,10.7,11.7
		c4.6,0,8.1-2.3,9.3-6.3H167v-8h23.2V19.8z"/>
</g>
<g>
	<path class="st1" d="M32.7,66.6v-14h-0.1l-10,14h-5.1v-14h-0.1l-9.3,14h-7l16.4-23.5h6.1V56h0.1l9-12.9h6.1v23.5H32.7z"/>
	<path class="st1" d="M58.5,66.3c-0.8,0.3-2.6,0.7-4.1,0.7c-6.9,0-12.3-5.1-12.3-12.1c0-7.7,5.7-12.2,12.6-12.2
		c1.6,0,2.7,0.2,3.9,0.7V49c-1.1-0.6-2.3-1-4-1c-2.7,0-4.9,1.6-5.9,4.1h9.6v5.3h-9.7c1,2.9,3.3,4.5,6,4.5c1.7,0,2.8-0.4,3.9-1.1
		V66.3L58.5,66.3z"/>
	<path class="st1" d="M77.4,66.3c-0.8,0.3-2.7,0.7-4.1,0.7C66.1,67,61,61.2,61,54.8c0-7,5.5-12.2,12.6-12.2c1.6,0,2.7,0.3,3.9,0.7
		v5.6c-1.1-0.6-2.3-1-4-1c-3.8,0-6.4,3.1-6.4,6.9c0,3.7,2.6,7,6.4,7c1.7,0,2.9-0.4,3.9-1.1V66.3L77.4,66.3z"/>
	<path class="st1" d="M113.6,43.1l-12.8,18.3V43.1h-6.1v8.8h-7.8v-8.8h-6.1v23.5h6.1v-9.4h7.8v9.4h9.8l2.1-3.4h6.9v3.4h6.2V43.1
		H113.6z M113.5,58.4h-4l4-6.5V58.4z"/>
	<path class="st1" d="M136.2,66.5v-14c0-2.9-1.3-4.6-3.8-4.6c-2.2,0-3.6,1.6-3.6,4.1v14.5h-6.1V43.1h5.8v2.3h0.1
		c1.1-1.8,3.3-2.8,5.8-2.8c5.1,0,8,2.9,8,9.1v14.8H136.2L136.2,66.5z"/>
	<path class="st1" d="M145.3,66.6V43.1h6.1v23.5H145.3z"/>
	<path class="st1" d="M170.6,66.3c-0.8,0.3-2.7,0.7-4.1,0.7c-7.2,0-12.3-5.8-12.3-12.2c0-7,5.5-12.2,12.6-12.2
		c1.6,0,2.7,0.3,3.9,0.7v5.6c-1.1-0.6-2.3-1-4-1c-3.8,0-6.4,3.1-6.4,6.9c0,3.7,2.6,7,6.4,7c1.7,0,2.9-0.4,3.9-1.1V66.3L170.6,66.3z"
		/>
	<path class="st1" d="M184.6,49.8c-0.3-1.7-1-2.2-2.2-2.2c-1.1,0-2.1,0.8-2.1,1.8c0,1.4,1.3,2,3.9,3.1c5.3,2.2,6.6,4.1,6.6,7.2
		c0,4.5-3.2,7.2-8.4,7.2s-8.6-2.7-8.6-7.7v-0.5h6.1c0,1.9,1,3.2,2.5,3.2c1.3,0,2.3-1,2.3-2.3c0-1.9-2.7-2.7-4.8-3.6
		c-3.9-1.6-5.7-3.6-5.7-6.6c0-4,3.9-6.9,8.4-6.9c1.6,0,3,0.3,4.2,1c2.6,1.3,3.8,3.2,3.8,6.3H184.6L184.6,49.8z"/>
</g>
</svg>
